<svg width="533" height="459" viewBox="0 0 533 459" fill="none" xmlns="http://www.w3.org/2000/svg">
<path d="M266.476 458.489C413.324 458.489 532.369 451.387 532.369 442.625C532.369 433.863 413.324 426.76 266.476 426.76C119.627 426.76 0.582214 433.863 0.582214 442.625C0.582214 451.387 119.627 458.489 266.476 458.489Z" fill="url(#paint0_linear_69:47)" fill-opacity="0.4"/>
<path fill-rule="evenodd" clip-rule="evenodd" d="M100.208 21.05C78.5367 21.05 60.8084 38.732 60.8084 60.3473C60.8084 81.9626 78.5367 99.6447 100.208 99.6447C104.555 99.6447 108.116 103.196 108.116 107.532C108.116 111.869 104.555 115.42 100.208 115.42H79.5919C69.0201 115.42 60.3689 124.049 60.3689 134.593C60.3689 145.137 69.0201 153.766 79.5919 153.766C88.735 153.766 96.2168 161.228 96.2168 170.347C96.2168 186.987 109.866 200.6 126.549 200.6H304.601C326.273 200.6 344.001 182.918 344.001 161.303C344.001 139.687 326.273 122.005 304.601 122.005H300.79C296.442 122.005 292.881 118.459 292.881 114.118C292.881 109.781 296.438 106.23 300.79 106.23H326.444C337.015 106.23 345.667 97.6014 345.667 87.0573C345.667 76.5258 337.037 67.9063 326.483 67.8843H305.84C296.697 67.8843 289.215 60.4219 289.215 51.3026C289.215 34.6633 275.566 21.05 258.885 21.05H100.208V21.05Z" fill="url(#paint1_linear_69:47)" fill-opacity="0.4"/>
<path d="M372.77 3.67671C372.236 3.48462 371.695 3.31057 371.149 3.15486C370.969 3.10236 370.79 3.04776 370.609 3.00156C370.221 2.90335 369.832 2.8099 369.442 2.72121C369.255 2.67921 369.068 2.64456 368.879 2.60886C368.487 2.53603 368.094 2.47023 367.701 2.41146C367.47 2.37924 367.239 2.34984 367.008 2.32326C366.841 2.30331 366.673 2.28441 366.503 2.26761C366.238 2.24342 365.972 2.22347 365.707 2.20776C365.566 2.19936 365.427 2.18571 365.286 2.18046C364.877 2.16051 364.465 2.15001 364.05 2.15001H174.092C172.786 2.14617 171.482 2.24517 170.192 2.44611C169.77 2.51137 169.349 2.58665 168.931 2.67186C158.091 4.89366 149.747 13.9909 148.61 25.2238C148.521 26.097 148.477 26.9742 148.478 27.8519V417.448C148.478 428.573 155.52 438.044 165.376 441.623C165.42 441.64 165.464 441.654 165.508 441.667C165.997 441.841 166.494 441.999 166.995 442.142C167.176 442.194 167.355 442.25 167.538 442.296C167.731 442.346 167.923 442.393 168.115 442.439C168.31 442.485 168.508 442.533 168.705 442.577C168.892 442.618 169.079 442.653 169.269 442.689C169.659 442.762 170.051 442.828 170.445 442.886C170.672 442.92 170.903 442.947 171.136 442.975C171.304 442.993 171.471 443.013 171.641 443.029C171.906 443.054 172.172 443.073 172.438 443.09C172.578 443.098 172.719 443.112 172.858 443.117C173.267 443.136 173.679 443.148 174.095 443.148H364.056C364.94 443.148 365.814 443.104 366.676 443.016C378.73 441.788 388.315 432.169 389.541 420.072C389.629 419.207 389.672 418.33 389.672 417.443V27.8519C389.666 16.7272 382.624 7.25616 372.77 3.67776V3.67671Z" stroke="#E1E4E5" stroke-width="4"/>
<path d="M269.072 422.211C277.228 422.211 283.839 415.593 283.839 407.429C283.839 399.265 277.228 392.646 269.072 392.646C260.916 392.646 254.305 399.265 254.305 407.429C254.305 415.593 260.916 422.211 269.072 422.211Z" fill="white" fill-opacity="0.4" stroke="#E1E4E5" stroke-width="4"/>
<path d="M292.453 23.0891H246.922C246.243 23.0891 245.692 23.6405 245.692 24.3208C245.692 25.001 246.243 25.5524 246.922 25.5524H292.453C293.133 25.5524 293.684 25.001 293.684 24.3208C293.684 23.6405 293.133 23.0891 292.453 23.0891Z" fill="white" stroke="#E1E4E5" stroke-width="2.346"/>
<path d="M351.461 41.5669H187.914C176.328 41.5669 166.936 50.9689 166.936 62.5669V347.01C166.936 358.608 176.328 368.01 187.914 368.01H351.461C363.046 368.01 372.438 358.608 372.438 347.01V62.5669C372.438 50.9689 363.046 41.5669 351.461 41.5669Z" stroke="#E1E4E5" stroke-width="4"/>
<path fill-rule="evenodd" clip-rule="evenodd" d="M234.484 156.812V161.905C234.486 163.257 235.023 164.553 235.978 165.508C236.934 166.463 238.229 167 239.579 167H300.714C302.065 167 303.36 166.463 304.315 165.508C305.27 164.553 305.808 163.257 305.809 161.905V156.73C305.809 141.315 288.192 131.3 270.147 131.3C252.102 131.3 234.484 141.32 234.484 156.73V156.812ZM257.538 85.0778C250.574 92.0488 250.574 103.351 257.538 110.322C264.502 117.293 275.792 117.293 282.755 110.322C289.719 103.351 289.719 92.0488 282.755 85.0778C275.792 78.1069 264.502 78.1069 257.538 85.0778V85.0778Z" fill="#1990FE"/>
<path d="M344.093 194.3H196.2C188.959 194.3 183.089 200.176 183.089 207.425C183.089 214.674 188.959 220.55 196.2 220.55H344.093C351.334 220.55 357.204 214.674 357.204 207.425C357.204 200.176 351.334 194.3 344.093 194.3Z" fill="white" fill-opacity="0.4" stroke="#E1E4E5" stroke-width="4"/>
<path d="M344.093 234.2H196.2C188.959 234.2 183.089 240.076 183.089 247.325C183.089 254.574 188.959 260.45 196.2 260.45H344.093C351.334 260.45 357.204 254.574 357.204 247.325C357.204 240.076 351.334 234.2 344.093 234.2Z" fill="white" fill-opacity="0.4" stroke="#E1E4E5" stroke-width="4"/>
<path d="M344.093 274.1H196.2C188.959 274.1 183.089 279.976 183.089 287.225C183.089 294.474 188.959 300.35 196.2 300.35H344.093C351.334 300.35 357.204 294.474 357.204 287.225C357.204 279.976 351.334 274.1 344.093 274.1Z" fill="#1990FE" stroke="#1990FE" stroke-width="4"/>
<path fill-rule="evenodd" clip-rule="evenodd" d="M127.278 239.248H124.346C123.637 239.248 123.066 238.671 123.066 237.967V235.033C123.066 234.323 123.643 233.752 124.346 233.752H127.278C127.98 233.752 128.557 234.329 128.557 235.033V237.967C128.563 238.671 127.987 239.248 127.278 239.248ZM117.113 239.248H114.181C113.478 239.248 112.901 238.671 112.901 237.967V235.033C112.901 234.323 113.478 233.752 114.181 233.752H117.113C117.816 233.752 118.392 234.329 118.392 235.033V237.967C118.392 238.671 117.816 239.248 117.113 239.248ZM106.943 239.248H104.011C103.308 239.248 102.731 238.671 102.731 237.967V235.033C102.731 234.323 103.308 233.752 104.011 233.752H106.943C107.645 233.752 108.222 234.329 108.222 235.033V237.967C108.228 238.671 107.651 239.248 106.943 239.248ZM96.7779 239.248H93.8463C93.1435 239.248 92.5666 238.671 92.5666 237.967V235.033C92.5666 234.323 93.1435 233.752 93.8463 233.752H96.7779C97.487 233.752 98.0628 234.329 98.0628 235.033V237.967C98.0595 238.307 97.9229 238.632 97.6825 238.871C97.4421 239.111 97.1172 239.246 96.7779 239.248ZM86.6131 239.248H83.6815C82.9724 239.248 82.3955 238.671 82.3955 237.967V235.033C82.3955 234.323 82.9724 233.752 83.6815 233.752H86.6131C87.3159 233.752 87.8928 234.329 87.8928 235.033V237.967C87.8928 238.671 87.3159 239.248 86.6131 239.248ZM116.74 228.153H113.809C113.106 228.153 112.529 227.575 112.529 226.872V223.931C112.529 223.227 113.106 222.65 113.809 222.65H116.74C117.449 222.65 118.02 223.227 118.02 223.931V226.866C118.021 227.034 117.989 227.202 117.925 227.358C117.861 227.514 117.767 227.656 117.648 227.776C117.529 227.896 117.388 227.991 117.232 228.055C117.076 228.12 116.909 228.153 116.74 228.153V228.153ZM106.576 228.153H103.644C102.941 228.153 102.364 227.575 102.364 226.872V223.931C102.364 223.227 102.941 222.65 103.644 222.65H106.576C107.278 222.65 107.855 223.227 107.855 223.931V226.866C107.856 227.034 107.824 227.202 107.76 227.358C107.696 227.514 107.602 227.656 107.483 227.776C107.364 227.896 107.223 227.991 107.067 228.055C106.911 228.12 106.744 228.153 106.576 228.153ZM96.4108 228.153H93.4791C92.7711 228.153 92.1943 227.575 92.1943 226.872V223.931C92.1943 223.227 92.7711 222.65 93.4791 222.65H96.4108C97.1146 222.65 97.6905 223.227 97.6905 223.931V226.866C97.6905 227.575 97.1146 228.153 96.4108 228.153ZM106.943 251.168H104.011C103.308 251.168 102.731 250.59 102.731 249.887V246.952C102.731 246.242 103.308 245.671 104.011 245.671H106.943C107.645 245.671 108.222 246.249 108.222 246.952V249.887C108.228 250.59 107.651 251.168 106.943 251.168ZM96.7779 251.168H93.8463C93.1435 251.168 92.5666 250.59 92.5666 249.887V246.952C92.5666 246.242 93.1435 245.671 93.8463 245.671H96.7779C97.487 245.671 98.0628 246.249 98.0628 246.952V249.887C98.0595 250.227 97.9229 250.551 97.6825 250.791C97.4421 251.031 97.1172 251.166 96.7779 251.168V251.168Z" fill="#E1E4E5"/>
<path d="M424.95 35.6376L449.286 11.2759C450.172 10.3889 450.172 8.95092 449.286 8.06398L449.285 8.06324C448.399 7.1763 446.963 7.17632 446.077 8.06326L421.741 32.4249C420.855 33.3119 420.855 34.7499 421.741 35.6368L421.742 35.6375C422.628 36.5245 424.064 36.5245 424.95 35.6376Z" fill="#E1E4E5"/>
<path d="M427.333 18.1948L434.352 11.169C435.238 10.282 435.238 8.84398 434.352 7.95704L434.351 7.9563C433.465 7.06936 432.029 7.06938 431.143 7.95632L424.124 14.9822C423.238 15.8691 423.238 17.3072 424.124 18.1941L424.125 18.1949C425.011 19.0818 426.447 19.0818 427.333 18.1948Z" fill="#E1E4E5"/>
<path d="M92.2607 63.7007L105.016 50.9318C105.481 50.4668 105.481 49.7129 105.016 49.2479C104.552 48.7829 103.798 48.7829 103.334 49.2479L90.5785 62.0167C90.114 62.4817 90.114 63.2357 90.5786 63.7007C91.0431 64.1657 91.7962 64.1657 92.2607 63.7007Z" fill="#E1E4E5"/>
<path d="M93.5095 54.5587L97.1882 50.8761C97.6527 50.4111 97.6527 49.6572 97.1882 49.1922C96.7237 48.7272 95.9706 48.7272 95.5061 49.1922L91.8273 52.8748C91.3628 53.3398 91.3628 54.0937 91.8273 54.5587C92.2918 55.0237 93.0449 55.0237 93.5095 54.5587Z" fill="#E1E4E5"/>
<path d="M339.373 340.25C339.373 343.729 342.191 346.55 345.667 346.55C349.142 346.55 351.96 343.729 351.96 340.25C351.96 336.771 349.142 333.95 345.667 333.95C342.191 333.95 339.373 336.771 339.373 340.25Z" fill="#E1E4E5"/>
<path d="M105.471 69.35C105.471 72.8294 108.289 75.65 111.764 75.65C115.24 75.65 118.058 72.8294 118.058 69.35C118.058 65.8707 115.24 63.05 111.764 63.05C108.289 63.05 105.471 65.8707 105.471 69.35Z" fill="#E1E4E5"/>
<path d="M45.9971 322.165C48.7496 321.427 50.383 318.595 49.6455 315.839C48.908 313.084 46.0788 311.449 43.3264 312.187C40.574 312.925 38.9406 315.758 39.6781 318.513C40.4156 321.268 43.2447 322.903 45.9971 322.165Z" fill="#E1E4E5"/>
<path d="M487.978 263.262C487.978 263.262 488.234 269.67 488.538 271.381C488.844 273.095 489.146 272.571 490.317 271.42C491.487 270.27 491.474 266.916 491.912 266.695C492.352 266.474 487.978 263.262 487.978 263.262V263.262Z" fill="#F8AE9D"/>
<path d="M330.267 134.343C330.901 139.249 332.599 145.162 335.347 147.171C338.464 149.45 339.427 151.871 339.427 151.871L342.594 150.894L346.381 149.725C346.381 149.725 346.386 149.338 346.363 148.694C346.334 147.845 346.266 146.997 346.16 146.154C346.16 146.154 345.438 144.6 346.45 143.09C347.461 141.584 347.926 138.998 347.214 137.191C346.506 135.39 346.358 131.309 345.688 131.277C344.064 131.187 345.177 136.999 344.28 137.818C343.473 138.566 342.783 138.087 342.661 137.984L342.635 137.964C338.703 135.023 335.795 123.406 333.12 124.267C332.123 124.586 329.993 132.254 330.267 134.343V134.343ZM490.126 255.059C490.126 255.059 486.769 260.875 488.273 264.23C489.772 267.587 494.976 272.06 496.319 273.816C497.656 275.568 502.196 280.197 504.025 277.219C505.853 274.246 502.625 266.342 500.386 263.363C498.151 260.377 497.938 255.255 497.938 255.255L490.126 255.059Z" fill="#F8AE9D"/>
<path d="M429.255 133.642C429.255 133.642 390.094 175.898 377.903 182.519L347.189 146.226C347.189 146.226 341.423 146.63 337.814 151.498C337.814 151.498 349.73 202.685 371.473 209.774C393.215 216.864 437.541 167.023 437.541 167.023L429.255 133.642V133.642ZM392.743 443.386H432.956C434.888 441.107 434.176 432.689 433.887 429.937C433.826 429.381 433.785 429.062 433.785 429.062C433.785 429.062 420.053 418.448 418.167 426.576C418.11 426.829 418.042 427.08 417.963 427.328C415.59 434.93 404.929 438.384 398.777 439.347C394.771 439.972 393.291 441.981 392.743 443.386V443.386Z" fill="#234768"/>
<path d="M419.817 443.386H460.03C461.962 441.107 461.25 432.689 460.961 429.937C460.9 429.381 460.859 429.062 460.859 429.062C460.859 429.062 447.127 418.448 445.241 426.576C445.184 426.829 445.116 427.08 445.037 427.328C442.664 434.93 432.003 438.384 425.851 439.347C421.845 439.972 420.365 441.981 419.817 443.386V443.386Z" fill="#234768"/>
<path d="M403.728 262.385C403.728 262.385 405.651 283.215 407.91 308.251C410.981 342.262 414.675 384.04 415.041 391.954C415.675 405.698 418.206 427.679 418.206 427.679C418.206 427.679 424.217 432.902 436.248 430.7C436.248 430.7 446.972 399.319 450.033 366.113L450.174 364.473C453.024 330.673 457.45 259.495 457.45 259.495L403.728 262.385V262.385Z" fill="#1990FE"/>
<path d="M414.633 263.811C414.633 263.811 418.259 284.434 422.565 309.224C428.417 342.901 435.525 384.273 436.532 392.131C438.277 405.774 442.617 427.508 442.617 427.508C442.617 427.508 449.154 432.353 461.226 429.45C461.226 429.45 469.629 397.576 470.086 364.338L470.097 362.697C470.291 328.881 469.095 257.761 469.095 257.761L414.633 263.811V263.811Z" fill="#1990FE"/>
<path d="M420.863 141.251C434.68 145.619 457.482 133.304 457.482 133.304C457.482 133.304 445.851 124.258 446.516 104.352L435.833 112.973L428.575 118.826C428.575 118.826 428.603 122.279 429.397 128.329C429.608 129.918 429.991 132.405 428.8 133.678C424.173 138.622 420.863 141.251 420.863 141.251Z" fill="#F8AE9D"/>
<path d="M424.35 118.502C424.35 118.502 447.177 122.299 449.32 108.031C451.464 93.7625 455.851 84.6432 441.368 81.6161C426.885 78.59 423.226 83.6037 421.355 88.1922C419.484 92.7807 418.47 117.146 424.35 118.502V118.502Z" fill="#F8AE9D"/>
<path d="M401.571 269.767C401.988 270.111 402.471 270.322 403.026 270.322C408.217 270.251 423.351 273.138 436.154 271.821C446.948 270.782 456.508 267.583 466.766 262.979C468.13 262.366 471.264 260.69 471.197 259.167C471.148 257.495 470.986 255.077 470.775 252.026C470.048 241.422 468.785 223.188 470.02 202.147C470.239 198.229 470.359 194.345 470.373 190.518C470.478 162.001 464.833 136.922 453.479 128.434C452.508 127.74 446.556 130.652 441.087 133.35C436.035 135.844 432.073 136.108 427.299 135.141L421.437 139.374C415.623 144.777 409.256 152.125 406.485 163.275C404.132 172.768 402.748 189.88 401.988 207.617C401.644 215.654 401.366 223.763 401.294 231.45V231.723C401.227 232.484 401.227 233.318 401.227 234.079C400.949 253.832 401.227 269.488 401.571 269.767V269.767Z" fill="#234768"/>
<path d="M493.548 258.021C489.215 258.61 484.592 258.002 484.592 258.002C484.592 258.002 474.144 217.932 472.712 214.247C471.282 210.56 437.599 165.942 437.599 165.942L454.833 129.091C454.833 129.091 490.149 196.722 493.587 206.138C499.269 221.695 499.583 255.857 499.583 255.857C499.583 255.857 496.953 257.561 493.548 258.021ZM451.889 102.92C450.646 105.492 447.041 105.872 447.373 103.035C447.751 99.8063 447.747 95.5822 445.124 96.3676C442.502 97.153 442.369 99.2561 441.292 98.0297C440.216 96.8033 440.197 91.631 432.388 91.2667C424.58 90.9076 421.408 93.6281 417.781 92.0279C415.608 91.0714 414.666 88.7162 414.261 86.9806C414.146 86.4892 414.503 85.8025 414.831 86.1857C415.142 86.548 415.921 86.5259 415.699 86.1038C414.324 83.4914 412.267 77.7889 417.508 73.5406C424.522 67.8548 431.67 71.5771 435.727 71.8207C444.67 72.3625 450.445 72.899 453.363 78.7801C455.783 83.6594 455.368 95.7134 451.889 102.92Z" fill="#234768"/>
<path d="M47.3197 382.314C41.5067 388.236 30.636 386.988 30.636 386.988C30.636 386.988 29.198 376.136 35.0162 370.217C40.8291 364.294 51.6946 365.539 51.6946 365.539C51.6946 365.539 53.1326 376.391 47.3197 382.314V382.314Z" fill="url(#paint2_linear_69:47)" fill-opacity="0.4"/>
<path d="M496.182 406.4C499.948 406.4 503 403.344 503 399.575C503 395.806 499.948 392.75 496.182 392.75C492.417 392.75 489.364 395.806 489.364 399.575C489.364 403.344 492.417 406.4 496.182 406.4Z" fill="#E1E4E5"/>
<path d="M180.489 197.357L164.224 192.894L176.828 202.22C168.402 213.332 159.645 225.338 158.846 239.501C158.567 244.125 158.008 248.508 157.076 252.599L137.87 256.77L132.865 257.848L139.281 258.381L155.093 259.714C153.989 262.978 152.684 266.043 151.166 268.88C144.072 282.231 131.627 321.004 118.064 323.177H118.051C117.638 322.351 98.2191 284.123 116.148 225.657C118.465 218.146 121.551 210.894 125.358 204.019C125.478 203.793 125.598 203.58 125.718 203.367C147.493 164.434 186.97 145.553 192.374 165.406C195.342 176.279 188.661 186.498 180.489 197.357V197.357Z" fill="#1990FE"/>
<path d="M151.167 268.908C140.479 303.284 131.627 321.032 118.065 323.203H118.051C117.506 323.203 87.7974 322.777 113.646 229.349C115.815 221.528 121.525 210.922 125.358 204.046C125.479 203.819 125.598 203.606 125.718 203.393C124.546 213.24 124.014 227.91 128.326 241.194C128.326 241.194 131.295 248.668 137.87 256.796L132.865 257.875L139.281 258.409C142.462 262.072 146.402 265.803 151.167 268.908V268.908Z" fill="#1990FE"/>
<path d="M117.851 368.093C116.906 234.505 164.29 170.536 189.406 160.543" stroke="#1990FE" stroke-width="2.5" stroke-miterlimit="10"/>
<path d="M117.745 241.42L108.814 249.481L117.958 246.71C118.65 274.744 113.593 301.392 100.003 303.843C81.9812 307.134 71.892 259.007 71.2668 225.111L84.1503 228.469L71.3864 220.021C71.4525 217.916 71.5731 211.8 71.7326 209.934C73.5157 190.002 80.2107 169.669 92.2299 157.011C99.7096 169.39 106.098 183.66 110.624 197.784C114.417 209.589 116.973 225.498 117.745 241.42V241.42Z" fill="#1990FE"/>
<path d="M71.7189 209.934L110.624 197.784C106.112 183.66 99.697 169.403 92.2299 157.011C80.2244 169.669 73.5031 190.002 71.7189 209.934Z" fill="#1990FE"/>
<path d="M94.4263 163.821C99.7504 220.062 101.999 327.054 98.7655 365.667" stroke="#1990FE" stroke-width="2.5" stroke-miterlimit="10"/>
<path d="M82.3001 323.309C72.0252 327.52 54.7615 305.148 41.4784 275.836C40.7092 274.115 39.955 272.387 39.2159 270.653C37.7692 267.248 36.4025 263.809 35.1169 260.34L43.4084 258.995L32.6143 253.318C26.7982 236.01 22.9781 218.049 23.0043 202.7L62.7614 210.667C72.2119 226.177 79.9181 247.749 84.4828 267.908L80.3974 279.7L86.1202 275.756C90.6587 299.699 90.2329 320.072 82.3001 323.309V323.309Z" fill="#1990FE"/>
<path d="M34.7571 211.573C63.933 272.744 93.068 340.631 90.7122 369.53" stroke="#1990FE" stroke-width="2.5" stroke-miterlimit="10"/>
<path d="M89.0035 250.217C89.0035 250.217 77.213 244.503 71.0497 230.11L47.5441 227.08L69.1701 224.667C67.8747 220.046 67.1604 214.761 67.4594 208.662C67.494 207.971 67.4888 207.301 67.5234 206.611C61.4241 206.727 53.5406 206.652 52.7949 206.626L67.5506 199.054C66.1136 160.594 45.0352 137.025 33.6663 165.106C31.3461 170.867 28.4019 177.282 25.7419 184.967L31.58 201.836L23.0284 193.129C22.2659 195.634 22.1432 196.309 22.0058 197.887C20.8079 211.622 27.7075 224.799 39.2254 232.412C53.6623 241.907 75.7687 254.209 89.0035 250.217V250.217Z" fill="#1990FE"/>
<path d="M75.1299 429.371L79.9548 354.31H125.237L130.452 429.299C131.008 437.4 124.594 444.284 116.48 444.284H89.1011C81.0089 444.284 74.6086 437.448 75.1299 429.371Z" fill="white" fill-opacity="0.4" stroke="#E1E4E5" stroke-width="4"/>
<path d="M72.6587 356.759V347.662H132.99V356.759H72.6587Z" fill="#E1E4E5" stroke="#E1E4E5" stroke-width="4"/>
<defs>
<linearGradient id="paint0_linear_69:47" x1="277.814" y1="476.278" x2="277.756" y2="392.232" gradientUnits="userSpaceOnUse">
<stop stop-color="white"/>
<stop offset="1" stop-color="#EEEEEE"/>
</linearGradient>
<linearGradient id="paint1_linear_69:47" x1="209.101" y1="301.266" x2="205.616" y2="-174.309" gradientUnits="userSpaceOnUse">
<stop stop-color="white"/>
<stop offset="1" stop-color="#EEEEEE"/>
</linearGradient>
<linearGradient id="paint2_linear_69:47" x1="24.1266" y1="402.544" x2="66.2157" y2="336.636" gradientUnits="userSpaceOnUse">
<stop stop-color="white"/>
<stop offset="1" stop-color="#EEEEEE"/>
</linearGradient>
</defs>
</svg>
