<svg width="269" height="227" viewBox="0 0 269 227" fill="none" xmlns="http://www.w3.org/2000/svg">
<path fill-rule="evenodd" clip-rule="evenodd" d="M31.6471 73.907C31.6471 50.5826 50.5389 31.6744 73.8431 31.6744H195.157C218.461 31.6744 237.353 50.5826 237.353 73.907V184.767C237.353 208.092 218.461 227 195.157 227H73.8431C50.5389 227 31.6471 208.092 31.6471 184.767V73.907ZM58.0198 79.1861C58.0198 67.5238 67.4657 58.0698 79.1178 58.0698H100.216C111.868 58.0698 121.314 67.5239 121.314 79.1861V179.488C121.314 191.151 111.868 200.605 100.216 200.605H79.1178C67.4657 200.605 58.0198 191.151 58.0198 179.488V79.1861ZM168.784 58.0698C157.132 58.0698 147.686 67.5238 147.686 79.1861V179.488C147.686 191.151 157.132 200.605 168.784 200.605H189.882C201.534 200.605 210.98 191.151 210.98 179.488V79.1861C210.98 67.5239 201.534 58.0698 189.882 58.0698H168.784Z" fill="#1990FE"/>
<path d="M68.5686 15.8372H200.431C229.562 15.8372 253.176 39.4724 253.176 68.6279V108.221C253.176 112.594 256.719 116.14 261.088 116.14C265.458 116.14 269 112.594 269 108.221V65.9884C269 65.53 268.961 65.0806 268.886 64.6435C266.825 28.5957 236.965 0 200.431 0H68.5686C30.6992 0 0 30.7258 0 68.6279V197.965C0 202.338 3.54222 205.884 7.91177 205.884C12.2813 205.884 15.8235 202.338 15.8235 197.965V68.6279C15.8235 39.4724 39.4383 15.8372 68.5686 15.8372Z" fill="#1990FE"/>
</svg>
