<!--?xml version="1.0" standalone="no"?-->
              <svg id="sw-js-blob-svg" viewBox="0 0 100 100" xmlns="http://www.w3.org/2000/svg" version="1.1">
                    <defs> 
                        <linearGradient id="sw-gradient" x1="0" x2="1" y1="1" y2="0">
                            <stop id="stop1" stop-color="rgba(25, 143, 254, 1)" offset="0%"></stop>
                            <stop id="stop2" stop-color="rgba(95, 177, 255, 1)" offset="100%"></stop>
                        </linearGradient>
                    </defs>
                <path fill="url(#sw-gradient)" d="M13.7,-17.9C20.9,-16.6,32.1,-18.2,35.1,-15C38.1,-11.9,32.8,-4,27.3,0.8C21.8,5.7,16.2,7.4,13.8,14.1C11.3,20.8,12.2,32.6,9.7,33.4C7.3,34.2,1.6,24.1,-4.2,19.8C-9.9,15.5,-15.7,17.1,-21,15.6C-26.4,14.1,-31.3,9.7,-31.3,4.9C-31.4,0.1,-26.6,-4.9,-21,-6.5C-15.4,-8,-9.1,-6.1,-5.4,-9.1C-1.8,-12,-0.9,-19.9,1.2,-21.7C3.2,-23.4,6.4,-19.2,13.7,-17.9Z" width="100%" height="100%" transform="translate(50 50)" stroke-width="0" style="transition: all 0.3s ease 0s;"></path>
              </svg>