<!--?xml version="1.0" standalone="no"?-->
              <svg id="sw-js-blob-svg" viewBox="0 0 100 100" xmlns="http://www.w3.org/2000/svg" version="1.1">
                    <defs> 
                        <linearGradient id="sw-gradient" x1="0" x2="1" y1="1" y2="0">
                            <stop id="stop1" stop-color="rgba(25, 143, 254, 1)" offset="0%"></stop>
                            <stop id="stop2" stop-color="rgba(95, 177, 255, 1)" offset="100%"></stop>
                        </linearGradient>
                    </defs>
                <path fill="url(#sw-gradient)" d="M20.2,-22.8C27,-18.4,33.7,-12.8,32.4,-7.6C31.1,-2.4,21.6,2.3,17.1,9.7C12.6,17,13,27,8.5,32.8C3.9,38.5,-5.6,40.1,-13.2,37C-20.8,33.9,-26.5,26.2,-30,18.2C-33.6,10.2,-35.1,1.9,-30.5,-2.2C-25.9,-6.2,-15.4,-6,-9.3,-10.4C-3.2,-14.8,-1.6,-23.9,2.6,-27C6.7,-30.1,13.5,-27.1,20.2,-22.8Z" width="100%" height="100%" transform="translate(50 50)" stroke-width="0" style="transition: all 0.3s ease 0s;"></path>
              </svg>