<!--?xml version="1.0" standalone="no"?-->
              <svg id="sw-js-blob-svg" viewBox="0 0 100 100" xmlns="http://www.w3.org/2000/svg" version="1.1">
                    <defs> 
                        <linearGradient id="sw-gradient" x1="0" x2="1" y1="1" y2="0">
                            <stop id="stop1" stop-color="rgba(25, 143, 254, 1)" offset="0%"></stop>
                            <stop id="stop2" stop-color="rgba(95, 177, 255, 1)" offset="100%"></stop>
                        </linearGradient>
                    </defs>
                <path fill="url(#sw-gradient)" d="M11.9,-21.2C13.6,-15.2,11.7,-9.2,13.3,-4.3C14.9,0.6,20.1,4.4,20.9,8.3C21.7,12.1,18.1,16.1,13.9,16.9C9.7,17.7,4.8,15.4,-1,16.7C-6.8,18.1,-13.7,23.2,-19.5,22.9C-25.3,22.6,-30,17,-31.6,10.6C-33.1,4.3,-31.4,-2.7,-26.7,-6.1C-22.1,-9.5,-14.4,-9.4,-9.4,-14.2C-4.5,-19.1,-2.2,-29,1.5,-31C5.2,-33,10.3,-27.1,11.9,-21.2Z" width="100%" height="100%" transform="translate(50 50)" stroke-width="0" style="transition: all 0.3s ease 0s;"></path>
              </svg>